<?xml version="1.0" encoding="UTF-8" standalone="no"?>
<!-- Created with Inkscape (http://www.inkscape.org/) -->

<svg
   version="1.1"
   id="svg116638"
   xml:space="preserve"
   width="1066.6667"
   height="1066.6667"
   viewBox="0 0 1066.6667 1066.6667"
   sodipodi:docname="girl-silhouette-11-publicdomainvectors.org.svg"
   inkscape:version="1.1.2 (b8e25be833, 2022-02-05)"
   xmlns:inkscape="http://www.inkscape.org/namespaces/inkscape"
   xmlns:sodipodi="http://sodipodi.sourceforge.net/DTD/sodipodi-0.dtd"
   xmlns="http://www.w3.org/2000/svg"
   xmlns:svg="http://www.w3.org/2000/svg"><defs
     id="defs116642"><clipPath
       clipPathUnits="userSpaceOnUse"
       id="clipPath116652"><path
         d="M 0,800 H 800 V 0 H 0 Z"
         id="path116650" /></clipPath></defs><sodipodi:namedview
     id="namedview116640"
     pagecolor="#ffffff"
     bordercolor="#666666"
     borderopacity="1.0"
     inkscape:pageshadow="2"
     inkscape:pageopacity="0.0"
     inkscape:pagecheckerboard="0"
     showgrid="false"
     inkscape:zoom="0.77906244"
     inkscape:cx="533.33337"
     inkscape:cy="533.33337"
     inkscape:window-width="1920"
     inkscape:window-height="1018"
     inkscape:window-x="-8"
     inkscape:window-y="-8"
     inkscape:window-maximized="1"
     inkscape:current-layer="g116644" /><g
     id="g116644"
     inkscape:groupmode="layer"
     inkscape:label="girl-silhouette-11-publicdomainvectors.org"
     transform="matrix(1.3333333,0,0,-1.3333333,0,1066.6667)"><g
       id="g116646"><g
         id="g116648"
         clip-path="url(#clipPath116652)"><path
           d="m 343.023,698.443 20.221,2.358 c -3.588,1.492 -6.983,2.701 -9.627,3.155 -5.739,1.008 -8.775,-2.061 -10.594,-5.513"
           style="fill:#e04400;fill-opacity:1;fill-rule:nonzero;stroke:none"
           id="path116654" /><path
           d="m 341.101,693.674 c -1.47,-4.417 -3.304,-3.311 -6.251,-3.311 -0.513,0 -0.991,-0.071 -1.453,-0.196 l 62.022,-4.917 4.962,1.648 c -4.849,2.676 -12.715,3.897 -16.593,4.92 -3.8,1.022 -12.64,5.692 -20.544,8.983 l -20.221,-2.358 c -0.861,-1.635 -1.45,-3.354 -1.922,-4.769"
           style="fill:#e65100;fill-opacity:1;fill-rule:nonzero;stroke:none"
           id="path116656" /><path
           d="m 468.411,254.609 c 6.598,4.127 16.267,12.514 21.307,18.223 5.902,6.607 4.432,16.178 4.432,24.998 0,8.84 4.781,9.568 11.759,14.363 5.93,4.043 4.729,5.717 4.885,8.371 l -48.98,-33.386 z"
           style="fill:#bbebe3;fill-opacity:1;fill-rule:nonzero;stroke:none"
           id="path116658" /><path
           d="m 438.532,580.877 c -2.093,3.161 -4.339,6.619 -5.829,9.413 -2.939,5.516 -4.425,18.768 -4.759,25.004 -0.214,3.54 -2.663,6.373 -5.483,8.768 l -21.333,-31.045 z"
           style="fill:#fb6507;fill-opacity:1;fill-rule:nonzero;stroke:none"
           id="path116660" /><path
           d="m 497.06,360.83 c -1.108,3.516 -4.51,4.975 -8.441,6.16 -4.766,1.469 -7.349,3.319 -8.456,6.629 -1.113,3.311 -4.031,1.469 -9.19,1.84 -4.111,0.287 -4.006,10.709 -4.739,18.824 l -40.771,-13.371 z"
           style="fill:#e8f8c4;fill-opacity:1;fill-rule:nonzero;stroke:none"
           id="path116662" /><path
           d="m 461.814,287.178 48.98,33.386 c 0.028,0.481 0.102,0.993 0.269,1.555 1.12,3.668 -7.002,13.971 -7.002,19.504 0,5.514 -6.622,11.039 -6.622,16.547 0,1.002 -0.134,1.881 -0.379,2.66 l -71.597,20.082 z"
           style="fill:#ddf5db;fill-opacity:1;fill-rule:nonzero;stroke:none"
           id="path116664" /><path
           d="m 401.128,593.017 21.333,31.045 c -2.165,1.837 -4.548,3.417 -6.306,4.855 -4.052,3.325 -4.781,1.848 -2.954,6.993 1.84,5.145 -2.94,10.297 -4.766,12.88 -1.856,2.568 -3.312,6.251 -3.312,9.933 0,3.668 0.742,18.017 -0.742,23.912 -0.443,1.744 -1.952,3.134 -4,4.263 l -4.962,-1.648 z"
           style="fill:#f55a00;fill-opacity:1;fill-rule:nonzero;stroke:none"
           id="path116666" /><path
           d="m 427.195,169.434 c 6.993,0.379 19.13,20.259 22.071,26.488 2.342,5.025 -0.477,8.621 -2.26,11.935 l -29,-37.82 c 2.059,-1.105 5.346,-0.803 9.189,-0.603"
           style="fill:#98bac4;fill-opacity:1;fill-rule:nonzero;stroke:none"
           id="path116668" /><path
           d="m 425.463,380.912 28.439,37.63 c -1.114,1.145 -2.193,2.134 -3.181,2.908 -5.138,4.046 -8.077,19.487 -11.41,31.277 -3.29,11.752 -21.307,47.809 -24.997,55.538 -1.425,2.986 -2.74,5.641 -3.773,8.054 l -17.225,3.093 z"
           style="fill:#ffe157;fill-opacity:1;fill-rule:nonzero;stroke:none"
           id="path116670" /><path
           d="m 466.234,394.283 c -0.182,2.026 -0.418,3.908 -0.784,5.453 -1.497,6.247 -6.827,13.946 -11.548,18.806 l -28.439,-37.63 z"
           style="fill:#f9f393;fill-opacity:1;fill-rule:nonzero;stroke:none"
           id="path116672" /><path
           d="m 410.541,516.319 c -1.379,3.22 -2.257,6.005 -2.222,8.556 l -15.003,-5.463 z"
           style="fill:#fdb53f;fill-opacity:1;fill-rule:nonzero;stroke:none"
           id="path116674" /><path
           d="m 426.823,531.056 c 2.468,-2.235 7.35,1.819 9.942,3.696 0.284,0.206 0.557,0.469 0.817,0.778 l -11.204,-4.08 c 0.149,-0.13 0.297,-0.26 0.445,-0.394"
           style="fill:#fdb53f;fill-opacity:1;fill-rule:nonzero;stroke:none"
           id="path116676" /><path
           d="m 393.316,519.412 15.003,5.463 c 0.006,0.474 0.043,0.94 0.116,1.4 0.742,4.781 4.766,26.495 5.879,32.382 1.099,5.887 1.841,9.941 1.47,20.238 4.039,-5.153 8.471,-8.471 8.471,-12.517 0,-4.046 -2.401,-8.441 -4.898,-10.333 -2.845,-2.14 -4.541,-3.478 -3.202,-7.699 1.442,-4.512 2.438,-7.467 3.857,-10.443 1.292,-2.645 3.867,-4.272 6.366,-6.453 l 11.204,4.08 c 1.65,1.962 2.684,5.951 1.729,11.353 -1.092,6.251 4.06,8.463 5.159,11.774 1.113,3.304 0.742,11.404 -1.099,14.721 -0.908,1.626 -2.802,4.422 -4.839,7.499 l -37.404,12.14 z"
           style="fill:#ff9b13;fill-opacity:1;fill-rule:nonzero;stroke:none"
           id="path116678" /><path
           d="m 461.814,287.178 -36.351,93.734 -9.314,-87.125 z"
           style="fill:#dff3bd;fill-opacity:1;fill-rule:nonzero;stroke:none"
           id="path116680" /><path
           d="m 422.399,222.781 c 0,-4.41 -1.085,-24.646 -2.198,-30.527 -1.106,-5.879 -3.682,-7.742 -4.409,-15.818 -0.339,-3.639 0.526,-5.493 2.214,-6.399 l 29,37.82 c -0.443,0.825 -0.824,1.631 -1.043,2.438 -1.122,4.039 -2.592,8.818 -7.002,17.66 4.41,-0.742 7.722,3.684 13.608,7.336 1.113,0.695 1.988,1.311 2.677,1.891 l -47.754,-7.453 c 6.101,-2.991 12.404,-4.899 14.907,-6.948"
           style="fill:#adcfb9;fill-opacity:1;fill-rule:nonzero;stroke:none"
           id="path116682" /><path
           d="m 404.381,155.105 c 6.622,4.411 3.682,7.358 2.198,16.934 -1.456,9.547 1.484,14.336 1.484,20.215 0,5.807 -6.452,14.48 -8.029,18.601 l -0.638,-58.687 c 1.633,0.816 3.308,1.816 4.985,2.937"
           style="fill:#adcfb9;fill-opacity:1;fill-rule:nonzero;stroke:none"
           id="path116684" /><path
           d="m 416.149,293.787 43.74,-42.789 c 1.186,0.393 2.959,0.723 5.561,1.953 0.881,0.418 1.881,0.983 2.961,1.658 l -6.597,32.569 z"
           style="fill:#c0eac6;fill-opacity:1;fill-rule:nonzero;stroke:none"
           id="path116686" /><path
           d="m 401.373,233.291 c 1.904,-1.352 3.999,-2.523 6.119,-3.562 l 47.754,7.453 c 2.964,2.504 2.476,4.375 2.476,9.162 0,3.435 0.507,4.105 2.167,4.654 l -43.74,42.789 z"
           style="fill:#bee2ba;fill-opacity:1;fill-rule:nonzero;stroke:none"
           id="path116688" /><path
           d="m 425.463,380.912 -32.147,138.5 -69.399,-109.958 z"
           style="fill:#ffdd4d;fill-opacity:1;fill-rule:nonzero;stroke:none"
           id="path116690" /><path
           d="m 323.917,409.454 -21.773,-84.143 c 2.566,-8.442 6.236,-20.161 10.634,-27.104 0.187,-0.293 0.374,-0.574 0.56,-0.848 l 102.811,-3.572 z"
           style="fill:#f0e096;fill-opacity:1;fill-rule:nonzero;stroke:none"
           id="path116692" /><path
           d="m 416.149,293.787 9.314,87.125 -101.546,28.542 z"
           style="fill:#f6ee98;fill-opacity:1;fill-rule:nonzero;stroke:none"
           id="path116694" /><path
           d="m 395.419,685.25 -52.043,-62.597 c -0.018,-0.958 -0.049,-1.996 0.01,-3.095 -1.06,-0.977 -1.285,-0.642 -2.705,-0.148 l -17.478,-21.022 c 3.693,-2.064 6.546,-3.669 7.593,-4.401 3.163,-2.22 3.343,-3.889 4.489,-8.957 l 65.843,7.987 z"
           style="fill:#fb6800;fill-opacity:1;fill-rule:nonzero;stroke:none"
           id="path116696" /><path
           d="m 313.338,297.359 c 4.236,-6.226 8.446,-7.252 12.321,-7.607 4.031,-0.371 4.417,-4.061 6.986,-8.471 2.576,-4.41 21.336,-4.41 30.541,-6.252 2.03,-5.174 6.385,-17.226 10.497,-28.918 l 23.995,-15.836 c -0.094,1.944 -0.192,4.1 -0.297,6.5 1.163,-1.287 2.522,-2.437 3.992,-3.484 l 14.776,60.496 z"
           style="fill:#d3dfa7;fill-opacity:1;fill-rule:nonzero;stroke:none"
           id="path116698" /><path
           d="m 393.316,519.412 -58.523,-14.877 c -2.46,-3.644 -4.401,-6.504 -8.392,-9.886 -4.788,-4.053 -5.515,2.962 -9.198,-1.113 -3.682,-4.046 -8.841,-9.927 -11.032,-7.729 -2.212,2.213 -1.491,-17.283 0.728,-29.428 2.19,-12.123 1.834,-9.561 -1.841,-15.442 -0.528,-0.84 -1.039,-1.852 -1.527,-2.987 l 20.386,-28.496 z"
           style="fill:#feba1a;fill-opacity:1;fill-rule:nonzero;stroke:none"
           id="path116700" /><path
           d="m 339.936,619.645 c -2.139,0.619 -12.021,3.981 -15.878,5.196 -3.871,1.23 -9.664,6.404 -12.298,8.144 -1.341,0.868 -5.122,3.927 -8.871,7.116 l 3.653,-32.178 c 5.558,-3.35 11.829,-6.835 16.661,-9.535 l 17.478,21.022 c -0.218,0.076 -0.463,0.156 -0.745,0.235"
           style="fill:#f35c00;fill-opacity:1;fill-rule:nonzero;stroke:none"
           id="path116702" /><path
           d="m 305.953,656.882 c 4.585,3.456 9.962,6.192 13.826,8.448 -0.8,-1.018 -0.087,-1.63 0.829,-3.049 0.903,-1.433 -0.217,-3.267 -2.342,-6.528 -2.133,-3.244 7.422,-15.441 10.275,-17.995 2.852,-2.54 2.445,-3.049 3.652,-4.49 1.223,-1.412 5.91,-3.74 8.959,-5.065 2.22,-0.972 2.273,-2.964 2.224,-5.55 l 52.043,62.597 -62.022,4.917 c -2.179,-0.592 -3.963,-2.468 -6.996,-4.6 -3.681,-2.576 -13.258,-5.886 -20.23,-8.463 -1.94,-0.71 -4.362,-1.733 -7.147,-2.951 l 2.328,-20.509 c 1.507,1.023 3.087,2.096 4.601,3.238"
           style="fill:#f35c00;fill-opacity:1;fill-rule:nonzero;stroke:none"
           id="path116704" /><path
           d="m 384.508,200.725 v -20.971 c 0,-5.139 -3.158,-11.666 -2.933,-17.67 l 0.029,0.008 c 0.364,-9.918 1.456,-7.363 5.487,-10.676 3.028,-2.469 7.482,-1.662 12.305,0.752 l 0.638,58.687 c -0.021,0.053 -0.044,0.11 -0.062,0.161 -1.143,3.14 -1.624,6.707 -2.127,16 l -14.597,-9.676 c 1.562,-6.414 1.26,-10.303 1.26,-16.615"
           style="fill:#b7b9a7;fill-opacity:1;fill-rule:nonzero;stroke:none"
           id="path116706" /><path
           d="m 382.681,219.484 c 0.213,-0.748 0.4,-1.459 0.567,-2.144 l 14.597,9.676 c -0.03,0.537 -0.058,1.093 -0.088,1.67 l -18.283,0.689 c 1.516,-4.48 2.678,-8.039 3.207,-9.891"
           style="fill:#c2ba94;fill-opacity:1;fill-rule:nonzero;stroke:none"
           id="path116708" /><path
           d="m 379.474,229.375 18.283,-0.689 c -0.026,0.513 -0.052,1.043 -0.079,1.589 l -23.995,15.836 c 2.111,-6.002 4.156,-11.906 5.791,-16.736"
           style="fill:#d3c993;fill-opacity:1;fill-rule:nonzero;stroke:none"
           id="path116710" /><path
           d="m 401.128,593.017 -65.843,-7.987 c 0.192,-0.844 0.408,-1.78 0.671,-2.832 -1.527,-4.267 -3.559,-11.576 -4.207,-16.886 l 61.567,-45.9 z"
           style="fill:#ff8500;fill-opacity:1;fill-rule:nonzero;stroke:none"
           id="path116712" /><path
           d="m 331.749,565.312 c -0.134,-1.092 -0.21,-2.102 -0.21,-2.98 0,-5.152 6.258,-18.018 8.471,-22.071 2.211,-4.053 2.211,-6.978 1.833,-16.934 -0.364,-9.918 -2.212,-11.759 -5.523,-16.547 -0.542,-0.785 -1.044,-1.53 -1.527,-2.245 l 58.523,14.877 z"
           style="fill:#fe9400;fill-opacity:1;fill-rule:nonzero;stroke:none"
           id="path116714" /><path
           d="m 294.267,647.924 c 1.276,1.784 4.029,3.646 7.085,5.72 l -2.328,20.509 c -7.255,-3.172 -16.977,-7.665 -27.084,-11.399 -13.957,-5.123 -4.788,-12.13 -2.197,-17.653 2.576,-5.517 18.388,-22.799 25.018,-29.064 2.25,-2.126 6.719,-5.063 11.781,-8.114 l -3.653,32.178 c -3.699,3.145 -7.365,6.413 -8.622,7.823"
           style="fill:#f04f00;fill-opacity:1;fill-rule:nonzero;stroke:none"
           id="path116716" /><path
           d="m 299.309,409.588 c 0.781,-8.114 2.265,-6.06 -0.517,-10.21 -2.925,-4.431 2.22,-12.523 4.054,-21.329 1.834,-8.84 -0.735,-25.387 -2.948,-35.699 -2.197,-10.289 -0.356,-8.471 2.213,-16.934 0.011,-0.035 0.022,-0.072 0.033,-0.105 l 21.773,84.143 z"
           style="fill:#fbb94f;fill-opacity:1;fill-rule:nonzero;stroke:none"
           id="path116718" /><path
           d="m 303.531,437.95 c -2.924,-6.811 -4.983,-18.285 -4.353,-26.804 0.041,-0.559 0.085,-1.075 0.131,-1.558 l 24.608,-0.134 z"
           style="fill:#ffab15;fill-opacity:1;fill-rule:nonzero;stroke:none"
           id="path116720" /></g></g></g></svg>
