<?xml version="1.0" encoding="UTF-8" standalone="no"?>
<!-- Created with Inkscape (http://www.inkscape.org/) -->

<svg
   version="1.1"
   id="svg19233"
   xml:space="preserve"
   width="1066.6667"
   height="1066.6667"
   viewBox="0 0 1066.6667 1066.6667"
   sodipodi:docname="silhouette-boy-color-publicdomainvectors.org (2).svg"
   inkscape:version="1.1.2 (b8e25be833, 2022-02-05)"
   xmlns:inkscape="http://www.inkscape.org/namespaces/inkscape"
   xmlns:sodipodi="http://sodipodi.sourceforge.net/DTD/sodipodi-0.dtd"
   xmlns="http://www.w3.org/2000/svg"
   xmlns:svg="http://www.w3.org/2000/svg"><defs
     id="defs19237"><clipPath
       clipPathUnits="userSpaceOnUse"
       id="clipPath19247"><path
         d="M 0,800 H 800 V 0 H 0 Z"
         id="path19245" /></clipPath></defs><sodipodi:namedview
     id="namedview19235"
     pagecolor="#ffffff"
     bordercolor="#666666"
     borderopacity="1.0"
     inkscape:pageshadow="2"
     inkscape:pageopacity="0.0"
     inkscape:pagecheckerboard="0"
     showgrid="false"
     inkscape:zoom="0.77906244"
     inkscape:cx="533.33337"
     inkscape:cy="533.33337"
     inkscape:window-width="1920"
     inkscape:window-height="1018"
     inkscape:window-x="-8"
     inkscape:window-y="-8"
     inkscape:window-maximized="1"
     inkscape:current-layer="g19239" /><g
     id="g19239"
     inkscape:groupmode="layer"
     inkscape:label="silhouette-boy-color-publicdomainvectors.org (2)"
     transform="matrix(1.3333333,0,0,-1.3333333,0,1066.6667)"><g
       id="g19241"><g
         id="g19243"
         clip-path="url(#clipPath19247)"><path
           d="m 314.208,762.211 c -2.471,-2.639 -4.643,-5.465 -6.469,-8.492 l 2.555,-4.594 z"
           style="fill:#ff7900;fill-opacity:1;fill-rule:nonzero;stroke:none"
           id="path19249" /><path
           d="m 409.353,794.658 c -10.519,-0.625 -21.354,-1.848 -31.916,-3.804 l 37.112,-53.896 z"
           style="fill:#ff6012;fill-opacity:1;fill-rule:nonzero;stroke:none"
           id="path19251" /><path
           d="m 496.907,774.007 c -7.847,8.906 -19.922,16.614 -38.499,19.175 -5.187,0.717 -11.001,1.264 -17.251,1.602 l 38.932,-64.463 z"
           style="fill:#ff440e;fill-opacity:1;fill-rule:nonzero;stroke:none"
           id="path19253" /><path
           d="m 480.089,730.321 -38.932,64.463 c -9.768,0.528 -20.607,0.54 -31.804,-0.126 l 5.196,-57.7 z"
           style="fill:#ff661a;fill-opacity:1;fill-rule:nonzero;stroke:none"
           id="path19255" /><path
           d="m 377.437,790.854 c -25.371,-4.698 -49.166,-13.625 -63.229,-28.643 l -3.914,-13.086 10.462,-1.22 c 4.252,1.2 10.106,1.191 18.122,-0.781 -0.286,-0.406 -0.565,-0.819 -0.842,-1.236 l 76.513,-8.93 z"
           style="fill:#ff8a0a;fill-opacity:1;fill-rule:nonzero;stroke:none"
           id="path19257" /><path
           d="m 524.148,729.21 c -3.036,3.793 -7.146,6.688 -12.669,8.059 v 0.021 c 0,0 -0.169,20.375 -14.572,36.717 l -16.818,-43.686 z"
           style="fill:#ff3f09;fill-opacity:1;fill-rule:nonzero;stroke:none"
           id="path19259" /><path
           d="m 307.739,753.719 c -1.166,-1.931 -2.19,-3.944 -3.063,-6.039 l 5.618,1.445 z"
           style="fill:#ff7c00;fill-opacity:1;fill-rule:nonzero;stroke:none"
           id="path19261" /><path
           d="m 414.549,736.958 -76.513,8.93 c -5.472,-8.263 -9.027,-18.846 -11.307,-29.781 l 13.984,-28.096 z"
           style="fill:#ffa713;fill-opacity:1;fill-rule:nonzero;stroke:none"
           id="path19263" /><path
           d="m 313.317,743.051 c 1.637,2.141 4.021,3.888 7.439,4.854 l -10.462,1.22 z"
           style="fill:#ffa713;fill-opacity:1;fill-rule:nonzero;stroke:none"
           id="path19265" /><path
           d="m 523.525,656.446 c 2.132,14.048 -4.351,18.236 -11.105,19.031 10.83,2.227 17.939,4.454 17.939,4.454 0,0 1.353,6.512 1.708,15.179 L 484.79,662.016 Z"
           style="fill:#ff5a14;fill-opacity:1;fill-rule:nonzero;stroke:none"
           id="path19267" /><path
           d="m 484.79,662.016 47.277,33.094 c 0.447,10.834 -0.665,25.036 -7.919,34.1 l -44.059,1.111 z"
           style="fill:#ff6517;fill-opacity:1;fill-rule:nonzero;stroke:none"
           id="path19269" /><path
           d="m 326.729,716.107 c -1.493,-7.16 -2.441,-14.468 -3.022,-21.374 l 17.006,-6.722 z"
           style="fill:#ff9f00;fill-opacity:1;fill-rule:nonzero;stroke:none"
           id="path19271" /><path
           d="m 304.676,747.68 c -3.476,-8.347 -4.542,-18.014 -2.465,-29.173 l 8.893,4.356 c 0,0 -3.607,12.576 2.213,20.188 l -3.023,6.074 z"
           style="fill:#ff9f00;fill-opacity:1;fill-rule:nonzero;stroke:none"
           id="path19273" /><path
           d="m 323.707,694.733 c -0.439,-5.209 -0.67,-10.187 -0.769,-14.699 l 17.775,7.977 z"
           style="fill:#ffa200;fill-opacity:1;fill-rule:nonzero;stroke:none"
           id="path19275" /><path
           d="m 484.79,662.016 -4.701,68.305 -60.838,-63.881 z"
           style="fill:#ff8a24;fill-opacity:1;fill-rule:nonzero;stroke:none"
           id="path19277" /><path
           d="m 480.089,730.321 -65.54,6.637 4.702,-70.518 z"
           style="fill:#ff8624;fill-opacity:1;fill-rule:nonzero;stroke:none"
           id="path19279" /><path
           d="M 414.549,736.958 340.713,688.011 419.251,666.44 Z"
           style="fill:#ff9c28;fill-opacity:1;fill-rule:nonzero;stroke:none"
           id="path19281" /><path
           d="m 312.483,608.506 c 2.148,-14.049 10.917,-21.507 20.549,-26.981 l 25.104,9.143 z"
           style="fill:#ffbe00;fill-opacity:1;fill-rule:nonzero;stroke:none"
           id="path19283" /><path
           d="m 501.864,627.868 c 6.547,1.405 13.75,4.585 16.621,11.668 2.767,6.812 4.351,12.374 5.04,16.91 l -38.735,5.57 z"
           style="fill:#ff791f;fill-opacity:1;fill-rule:nonzero;stroke:none"
           id="path19285" /><path
           d="m 340.713,688.011 17.423,-97.343 61.115,75.772 z"
           style="fill:#ffbc26;fill-opacity:1;fill-rule:nonzero;stroke:none"
           id="path19287" /><path
           d="m 340.713,688.011 -17.775,-7.977 c -0.049,-2.185 -0.067,-4.263 -0.063,-6.203 -4.122,-0.387 -7.69,-4.495 -8.195,-10.014 -0.492,-5.526 2.296,-10.18 6.314,-11.259 -8.054,-19.571 -10.104,-33.625 -8.511,-44.052 l 45.653,-17.838 z"
           style="fill:#ffbb00;fill-opacity:1;fill-rule:nonzero;stroke:none"
           id="path19289" /><path
           d="m 419.251,666.44 68.321,-45.148 c 1.16,3.407 1.611,5.554 1.611,5.554 0,0 5.998,-0.413 12.681,1.022 l -17.074,34.148 z"
           style="fill:#ff9228;fill-opacity:1;fill-rule:nonzero;stroke:none"
           id="path19291" /><path
           d="m 394.638,545.593 24.081,11.788 c 1.537,12.302 5.194,18.994 8.893,18.994 40.477,0 55.489,31.802 59.96,44.917 l -68.321,45.148 z"
           style="fill:#ffac32;fill-opacity:1;fill-rule:nonzero;stroke:none"
           id="path19293" /><path
           d="m 358.136,590.668 36.502,-45.075 24.613,120.847 z"
           style="fill:#ffbf35;fill-opacity:1;fill-rule:nonzero;stroke:none"
           id="path19295" /><path
           d="m 339.265,531.138 c -2.119,-3.39 -4.465,-7.413 -6.913,-12.068 l 2.554,-1.684 z"
           style="fill:#ffc400;fill-opacity:1;fill-rule:nonzero;stroke:none"
           id="path19297" /><path
           d="m 333.032,581.525 c 6.565,-3.729 13.529,-6.54 19.072,-9.887 l 6.032,19.03 z"
           style="fill:#ffc400;fill-opacity:1;fill-rule:nonzero;stroke:none"
           id="path19299" /><path
           d="m 481.579,482.653 c -14.077,49.875 -32.784,85.396 -32.784,85.396 -8.686,-10.374 -19.501,-16.902 -30.802,-20.947 0.086,3.77 0.34,7.198 0.726,10.279 l -24.081,-11.788 z"
           style="fill:#ffb133;fill-opacity:1;fill-rule:nonzero;stroke:none"
           id="path19301" /><path
           d="m 449.116,465.673 35.132,7.115 c -0.866,3.344 -1.758,6.635 -2.669,9.865 l -86.941,62.94 z"
           style="fill:#ffc429;fill-opacity:1;fill-rule:nonzero;stroke:none"
           id="path19303" /><path
           d="m 394.638,545.593 -36.502,45.075 -6.032,-19.03 c 2.521,-1.523 4.75,-3.158 6.511,-5.041 6.598,-7.061 10.263,-16.432 12.303,-24.994 -12.953,0.913 -21.895,3.202 -21.895,3.202 0,0 -4.06,-4.553 -9.758,-13.667 l -4.359,-13.752 z"
           style="fill:#ffc41d;fill-opacity:1;fill-rule:nonzero;stroke:none"
           id="path19305" /><path
           d="m 332.352,519.07 c -0.32,-0.607 -0.642,-1.225 -0.965,-1.855 l 3.519,0.171 z"
           style="fill:#ffc200;fill-opacity:1;fill-rule:nonzero;stroke:none"
           id="path19307" /><path
           d="m 334.906,517.386 27.93,-85.174 31.802,113.381 z"
           style="fill:#ffc40a;fill-opacity:1;fill-rule:nonzero;stroke:none"
           id="path19309" /><path
           d="m 394.638,545.593 -31.802,-113.381 86.28,33.461 z"
           style="fill:#ffc421;fill-opacity:1;fill-rule:nonzero;stroke:none"
           id="path19311" /><path
           d="m 313.3,469.651 c -3.962,-14.799 -7.15,-31.788 -8.767,-50.972 l 58.303,13.533 z"
           style="fill:#ffbd00;fill-opacity:1;fill-rule:nonzero;stroke:none"
           id="path19313" /><path
           d="m 334.906,517.386 -3.519,-0.171 c -6.136,-11.959 -12.799,-27.81 -18.087,-47.564 l 49.536,-37.439 z"
           style="fill:#ffc400;fill-opacity:1;fill-rule:nonzero;stroke:none"
           id="path19315" /><path
           d="m 449.116,465.673 -86.28,-33.461 80.197,-8.573 z"
           style="fill:#ffc403;fill-opacity:1;fill-rule:nonzero;stroke:none"
           id="path19317" /><path
           d="m 443.033,423.639 42.623,43.571 c -0.461,1.875 -0.93,3.735 -1.408,5.578 l -35.132,-7.115 z"
           style="fill:#ffc40c;fill-opacity:1;fill-rule:nonzero;stroke:none"
           id="path19319" /><path
           d="m 495.431,410.841 c -1.878,19.638 -5.431,38.694 -9.775,56.369 l -42.623,-43.571 z"
           style="fill:#ffbe00;fill-opacity:1;fill-rule:nonzero;stroke:none"
           id="path19321" /><path
           d="m 362.836,432.212 -58.303,-13.533 c -0.314,-3.728 -0.57,-7.539 -0.76,-11.433 -4.46,-91.849 8.03,-4.718 21.882,-9.697 v -51.921 l 10.91,-6.886 z"
           style="fill:#ffb900;fill-opacity:1;fill-rule:nonzero;stroke:none"
           id="path19323" /><path
           d="M 443.033,423.639 336.565,338.742 439.161,312.194 Z"
           style="fill:#ffbc00;fill-opacity:1;fill-rule:nonzero;stroke:none"
           id="path19325" /><path
           d="m 362.836,432.212 -26.271,-93.47 106.468,84.897 z"
           style="fill:#ffc400;fill-opacity:1;fill-rule:nonzero;stroke:none"
           id="path19327" /><path
           d="m 439.161,312.194 57.195,86.659 c -0.235,4.015 -0.546,8.014 -0.925,11.988 l -52.398,12.798 z"
           style="fill:#ffbb00;fill-opacity:1;fill-rule:nonzero;stroke:none"
           id="path19329" /><path
           d="m 325.655,345.628 v -14.691 l 10.91,7.805 z"
           style="fill:#ff9600;fill-opacity:1;fill-rule:nonzero;stroke:none"
           id="path19331" /><path
           d="m 508.886,332.832 c -3.263,4.016 -6.077,6.334 -8.436,7.298 l -1.536,-40.796 c 12.19,9.908 16.914,24.939 9.972,33.498"
           style="fill:#ff9600;fill-opacity:1;fill-rule:nonzero;stroke:none"
           id="path19333" /><path
           d="m 490.861,294.159 c 2.953,1.467 5.649,3.221 8.053,5.175 l 1.536,40.796 c -5.946,2.431 -8.992,-3.753 -8.992,-13.12 0,-13.079 -8.914,2.904 -8.914,2.904 v 19.641 c 9.253,4.163 13.375,9.032 13.375,9.032 1.162,13.446 1.217,26.949 0.437,40.266 l -57.195,-86.659 z"
           style="fill:#ffa500;fill-opacity:1;fill-rule:nonzero;stroke:none"
           id="path19335" /><path
           d="m 336.565,338.742 -0.553,-100.937 103.149,74.389 z"
           style="fill:#ff9500;fill-opacity:1;fill-rule:nonzero;stroke:none"
           id="path19337" /><path
           d="m 336.565,338.742 -10.91,-7.805 v -85.946 l 10.357,-7.186 z"
           style="fill:#ff8700;fill-opacity:1;fill-rule:nonzero;stroke:none"
           id="path19339" /><path
           d="m 336.012,237.805 97.342,-38.992 5.807,113.381 z"
           style="fill:#ff7500;fill-opacity:1;fill-rule:nonzero;stroke:none"
           id="path19341" /><path
           d="m 433.354,198.813 36.923,52.413 0.31,38.299 c 7.601,-0.039 14.441,1.737 20.274,4.634 l -51.7,18.035 z"
           style="fill:#ff8000;fill-opacity:1;fill-rule:nonzero;stroke:none"
           id="path19343" /><path
           d="m 325.655,244.991 v -12.182 l 10.357,4.996 z"
           style="fill:#ff6400;fill-opacity:1;fill-rule:nonzero;stroke:none"
           id="path19345" /><path
           d="m 469.867,200.53 0.41,50.696 -36.923,-52.413 z"
           style="fill:#ff5d00;fill-opacity:1;fill-rule:nonzero;stroke:none"
           id="path19347" /><path
           d="m 325.655,232.809 v -52.087 c 0,0 -8.201,-5.769 -26.394,-6.496 l 18.813,-23.721 c 2.18,-0.191 4.397,-0.361 6.641,-0.507 l 11.297,87.807 z"
           style="fill:#ff4e00;fill-opacity:1;fill-rule:nonzero;stroke:none"
           id="path19349" /><path
           d="m 336.012,237.805 -11.297,-87.807 c 3.766,-0.245 7.607,-0.421 11.476,-0.502 l 97.163,49.317 z"
           style="fill:#ff5000;fill-opacity:1;fill-rule:nonzero;stroke:none"
           id="path19351" /><path
           d="m 433.354,198.813 -97.163,-49.317 c 12.99,-0.276 26.289,0.495 38.081,3.196 v -9.575 l 74.568,-0.165 z"
           style="fill:#ff3e00;fill-opacity:1;fill-rule:nonzero;stroke:none"
           id="path19353" /><path
           d="m 448.84,142.952 20.7,17.079 0.327,40.499 -36.513,-1.717 z"
           style="fill:#ff4300;fill-opacity:1;fill-rule:nonzero;stroke:none"
           id="path19355" /><path
           d="m 272.999,176.371 v -18.899 c 0,0 20.112,-4.785 45.075,-6.967 l -18.813,23.721 c -7.167,-0.288 -15.884,0.207 -26.262,2.145"
           style="fill:#ff4400;fill-opacity:1;fill-rule:nonzero;stroke:none"
           id="path19357" /><path
           d="m 469.371,139.134 0.169,20.897 -20.7,-17.079 z"
           style="fill:#ff2e00;fill-opacity:1;fill-rule:nonzero;stroke:none"
           id="path19359" /><path
           d="m 464.212,116.17 c 3.172,0.788 4.985,1.392 4.985,1.392 l 0.174,21.572 -20.531,3.818 z"
           style="fill:#ff1c00;fill-opacity:1;fill-rule:nonzero;stroke:none"
           id="path19361" /><path
           d="M 448.84,142.952 373.118,90.95 c 39.25,7.323 49.356,22.254 49.356,22.254 8.294,-0.975 16.255,-0.812 23.181,-0.164 z"
           style="fill:#ff2200;fill-opacity:1;fill-rule:nonzero;stroke:none"
           id="path19363" /><path
           d="m 374.272,143.117 v -2.693 c -9.213,-11.531 -30.333,-21.254 -46.519,-27.406 l 3.36,-25.969 c 16.766,0.292 30.614,1.776 42.005,3.901 l 75.722,52.002 z"
           style="fill:#ff2c00;fill-opacity:1;fill-rule:nonzero;stroke:none"
           id="path19365" /><path
           d="M 306.747,105.936 V 87.423 c 8.738,-0.398 16.844,-0.506 24.366,-0.374 l -3.36,25.969 c -11.818,-4.494 -21.006,-7.082 -21.006,-7.082"
           style="fill:#ff3300;fill-opacity:1;fill-rule:nonzero;stroke:none"
           id="path19367" /><path
           d="m 445.655,113.04 c 7.859,0.734 14.384,2.093 18.557,3.13 l -15.372,26.782 z"
           style="fill:#ff2100;fill-opacity:1;fill-rule:nonzero;stroke:none"
           id="path19369" /></g></g></g></svg>
