<?xml version="1.0" encoding="UTF-8" standalone="no"?>
<!-- Created with Inkscape (http://www.inkscape.org/) -->

<svg
   xmlns:dc="http://purl.org/dc/elements/1.1/"
   xmlns:cc="http://creativecommons.org/ns#"
   xmlns:rdf="http://www.w3.org/1999/02/22-rdf-syntax-ns#"
   xmlns:svg="http://www.w3.org/2000/svg"
   xmlns="http://www.w3.org/2000/svg"
   xmlns:sodipodi="http://sodipodi.sourceforge.net/DTD/sodipodi-0.dtd"
   xmlns:inkscape="http://www.inkscape.org/namespaces/inkscape"
   version="1.1"
   id="svg815"
   xml:space="preserve"
   width="800"
   height="800"
   viewBox="0 0 800 800"
   sodipodi:docname="abstract-background-design-publicdomainvectors.org.svg"
   inkscape:version="0.92.4 (5da689c313, 2019-01-14)"><metadata
     id="metadata821"><rdf:RDF><cc:Work
         rdf:about=""><dc:format>image/svg+xml</dc:format><dc:type
           rdf:resource="http://purl.org/dc/dcmitype/StillImage" /><dc:title></dc:title></cc:Work></rdf:RDF></metadata><defs
     id="defs819"><clipPath
       clipPathUnits="userSpaceOnUse"
       id="clipPath831"><path
         d="M 0,600 H 600 V 0 H 0 Z"
         id="path829"
         inkscape:connector-curvature="0" /></clipPath><clipPath
       clipPathUnits="userSpaceOnUse"
       id="clipPath839"><path
         d="m 206.156,597.576 h 90.199 V 551.1 h -90.199 z"
         id="path837"
         inkscape:connector-curvature="0" /></clipPath><clipPath
       clipPathUnits="userSpaceOnUse"
       id="clipPath853"><path
         d="M 67.9077,599.188 H 208.945 V 461.484 H 67.9077 Z"
         id="path851"
         inkscape:connector-curvature="0" /></clipPath><clipPath
       clipPathUnits="userSpaceOnUse"
       id="clipPath867"><path
         d="m 535.083,599.188 h 66.226 v -64.973 h -66.226 z"
         id="path865"
         inkscape:connector-curvature="0" /></clipPath><clipPath
       clipPathUnits="userSpaceOnUse"
       id="clipPath881"><path
         d="M 177.602,599.188 H 601.309 V 83.8994 H 177.602 Z"
         id="path879"
         inkscape:connector-curvature="0" /></clipPath><clipPath
       clipPathUnits="userSpaceOnUse"
       id="clipPath895"><path
         d="M 158.857,599.188 H 573.796 V 25.8691 H 158.857 Z"
         id="path893"
         inkscape:connector-curvature="0" /></clipPath><clipPath
       clipPathUnits="userSpaceOnUse"
       id="clipPath909"><path
         d="M 27.1182,423.326 H 67.1221 V 148.78 H 27.1182 Z"
         id="path907"
         inkscape:connector-curvature="0" /></clipPath><clipPath
       clipPathUnits="userSpaceOnUse"
       id="clipPath923"><path
         d="M 69.0156,511.871 H 193.369 V 263.543 H 69.0156 Z"
         id="path921"
         inkscape:connector-curvature="0" /></clipPath><clipPath
       clipPathUnits="userSpaceOnUse"
       id="clipPath937"><path
         d="M 145.912,470.262 H 389.184 V 307.04 H 145.912 Z"
         id="path935"
         inkscape:connector-curvature="0" /></clipPath><clipPath
       clipPathUnits="userSpaceOnUse"
       id="clipPath951"><path
         d="M 195.227,416.846 H 528.383 V 7.62109 H 195.227 Z"
         id="path949"
         inkscape:connector-curvature="0" /></clipPath><clipPath
       clipPathUnits="userSpaceOnUse"
       id="clipPath965"><path
         d="M 39.2607,89.0088 H 89.0518 V -1.30859 H 39.2607 Z"
         id="path963"
         inkscape:connector-curvature="0" /></clipPath><clipPath
       clipPathUnits="userSpaceOnUse"
       id="clipPath979"><path
         d="M 126.652,518.237 H 450.161 V 121.178 H 126.652 Z"
         id="path977"
         inkscape:connector-curvature="0" /></clipPath><clipPath
       clipPathUnits="userSpaceOnUse"
       id="clipPath993"><path
         d="M 0.812012,460.576 H 42.5225 V 305.656 H 0.812012 Z"
         id="path991"
         inkscape:connector-curvature="0" /></clipPath></defs><sodipodi:namedview
     pagecolor="#ffffff"
     bordercolor="#666666"
     borderopacity="1"
     objecttolerance="10"
     gridtolerance="10"
     guidetolerance="10"
     inkscape:pageopacity="0"
     inkscape:pageshadow="2"
     inkscape:window-width="1920"
     inkscape:window-height="1018"
     id="namedview817"
     showgrid="false"
     inkscape:zoom="1.06125"
     inkscape:cx="400"
     inkscape:cy="400"
     inkscape:window-x="-8"
     inkscape:window-y="-8"
     inkscape:window-maximized="1"
     inkscape:current-layer="g823" /><g
     id="g823"
     inkscape:groupmode="layer"
     inkscape:label="abstract-background-design-publicdomainvectors.org"
     transform="matrix(1.3333333,0,0,-1.3333333,0,800)"><g
       id="g825"><g
         id="g827"
         clip-path="url(#clipPath831)"><g
           id="g833"><g
             id="g835" /><g
             id="g845"><g
               clip-path="url(#clipPath839)"
               id="g843"><path
                 d="m 296.355,597.576 c -1.867,-7.17 -3.728,-14.331 -5.589,-21.479 -28.522,-1.064 -57.986,-10.065 -83.767,-24.997 -0.281,5.757 -0.563,11.49 -0.843,17.2 27.629,16.622 59.248,27.129 90.199,29.276"
                 style="fill:#245b41;fill-opacity:1;fill-rule:nonzero;stroke:none"
                 id="path841"
                 inkscape:connector-curvature="0" /></g></g></g><g
           id="g847"><g
             id="g849" /><g
             id="g859"><g
               clip-path="url(#clipPath853)"
               id="g857"><path
                 d="M 208.945,599.188 C 154.079,567.783 107.095,519.484 76.399,461.484 c -2.866,3.185 -5.699,6.324 -8.491,9.425 16.001,30.761 35.91,58.751 58.74,83.343 15.181,16.34 31.885,31.434 49.803,44.936 z"
                 style="fill:#af6025;fill-opacity:1;fill-rule:nonzero;stroke:none"
                 id="path855"
                 inkscape:connector-curvature="0" /></g></g></g><g
           id="g861"><g
             id="g863" /><g
             id="g873"><g
               clip-path="url(#clipPath867)"
               id="g871"><path
                 d="m 601.309,599.188 v -64.973 c -16.191,20.614 -34.215,39.057 -53.61,55.065 -4.156,3.426 -8.363,6.728 -12.616,9.908 z"
                 style="fill:#e03223;fill-opacity:1;fill-rule:nonzero;stroke:none"
                 id="path869"
                 inkscape:connector-curvature="0" /></g></g></g><g
           id="g875"><g
             id="g877" /><g
             id="g887"><g
               clip-path="url(#clipPath881)"
               id="g885"><path
                 d="m 443.889,599.188 c 17.04,-8.618 33.6,-19.192 49.409,-31.659 46.443,-36.716 85.049,-88.633 108.011,-151.122 V 167.13 c -11.135,-28.982 -26.53,-56.974 -46.478,-83.231 -16.055,10.494 -31.574,20.65 -46.599,30.462 51.887,71.817 67.08,157.136 53.136,237.53 -13.281,76.121 -51.435,140.254 -101.354,183.517 -44.24,38.263 -95.996,58.632 -147.464,59.047 -45.152,0.323 -90.128,-14.704 -131.457,-46.488 -1.173,7.48 -2.336,14.898 -3.491,22.254 14.165,11.399 28.781,21.044 43.734,28.967 z"
                 style="fill:#245b41;fill-opacity:1;fill-rule:nonzero;stroke:none"
                 id="path883"
                 inkscape:connector-curvature="0" /></g></g></g><g
           id="g889"><g
             id="g891" /><g
             id="g901"><g
               clip-path="url(#clipPath895)"
               id="g899"><path
                 d="m 334.885,599.188 c 21.695,-1.337 43.493,-5.688 64.711,-13.25 32.662,-11.652 63.698,-30.838 90.108,-57.856 29.498,-29.016 51.824,-66.136 66.128,-108.685 14.93,-44.505 20.607,-93.455 16.831,-143.118 C 564.954,175.411 520.226,82.525 448.706,25.869 437.232,39.772 426.099,53.297 415.27,66.438 c 58.444,50.166 95.031,129.179 102.052,214.085 6.839,83.462 -15.733,162.727 -65.373,216.122 -42.253,46.999 -99.232,69.369 -154.331,68.972 -47.858,-0.388 -94.634,-17.933 -133.019,-51.633 -1.934,7.409 -3.848,14.737 -5.742,21.985 41.83,38.166 93.363,59.863 147.011,63.219 z"
                 style="fill:#de1e26;fill-opacity:1;fill-rule:nonzero;stroke:none"
                 id="path897"
                 inkscape:connector-curvature="0" /></g></g></g><g
           id="g903"><g
             id="g905" /><g
             id="g915"><g
               clip-path="url(#clipPath909)"
               id="g913"><path
                 d="m 58.103,423.326 c 2.968,-2.198 5.972,-4.432 9.019,-6.691 C 33.929,337.779 28.415,239.604 53.353,157.964 49.815,154.87 46.316,151.81 42.854,148.78 17.204,235.819 23.347,339.815 58.103,423.326"
                 style="fill:#de1e26;fill-opacity:1;fill-rule:nonzero;stroke:none"
                 id="path911"
                 inkscape:connector-curvature="0" /></g></g></g><g
           id="g917"><g
             id="g919" /><g
             id="g929"><g
               clip-path="url(#clipPath923)"
               id="g927"><path
                 d="m 190.418,511.871 c 0.976,-7.004 1.96,-14.058 2.951,-21.164 C 156.758,470.58 127.295,434.551 108.292,394.35 90.045,355.71 80.173,310.536 83.072,267.112 c -4.6,-1.206 -9.128,-2.4 -13.588,-3.569 -2.908,47.717 7.896,97.285 27.691,139.885 20.707,44.495 52.903,84.944 93.243,108.443"
                 style="fill:#245b41;fill-opacity:1;fill-rule:nonzero;stroke:none"
                 id="path925"
                 inkscape:connector-curvature="0" /></g></g></g><g
           id="g931"><g
             id="g933" /><g
             id="g943"><g
               clip-path="url(#clipPath937)"
               id="g941"><path
                 d="m 388.813,307.915 c -12.309,-0.3 -24.275,-0.591 -35.913,-0.875 4.486,68.195 -34.847,114.726 -80.61,128.857 -40.396,12.416 -85.156,-0.619 -114.66,-42.704 -3.969,5.774 -7.872,11.457 -11.718,17.044 34.859,51.01 88.612,68.888 138.424,55.994 58.069,-15.121 109.751,-71.794 104.477,-158.316"
                 style="fill:#df2225;fill-opacity:1;fill-rule:nonzero;stroke:none"
                 id="path939"
                 inkscape:connector-curvature="0" /></g></g></g><g
           id="g945"><g
             id="g947" /><g
             id="g957"><g
               clip-path="url(#clipPath951)"
               id="g955"><path
                 d="m 195.227,27.828 c 0.901,10.202 1.797,20.376 2.697,30.522 32.789,-15.956 68.24,-18.786 103.351,-9.863 38.197,9.742 75.099,33.122 106.026,67.228 67.213,74.201 98.323,187.397 56.817,285.015 13.122,5.233 26.596,10.601 40.434,16.116 C 556.268,302.96 519.146,170.015 438.112,84.948 401.339,46.391 357.799,20.917 313.179,11.57 272.665,3.1 232.213,8.135 195.227,27.828"
                 style="fill:#e03223;fill-opacity:1;fill-rule:nonzero;stroke:none"
                 id="path953"
                 inkscape:connector-curvature="0" /></g></g></g><g
           id="g959"><g
             id="g961" /><g
             id="g971"><g
               clip-path="url(#clipPath965)"
               id="g969"><path
                 d="M 64.752,-1.309 C 64.751,-1.306 64.749,-1.303 64.747,-1.3 55.828,30.282 47.346,60.352 39.261,89.009 51.418,56.639 67.533,27.361 87.007,1.388 c 0.678,-0.903 1.359,-1.801 2.045,-2.697 z"
                 style="fill:#e2621b;fill-opacity:1;fill-rule:nonzero;stroke:none"
                 id="path967"
                 inkscape:connector-curvature="0" /></g></g></g><g
           id="g973"><g
             id="g975" /><g
             id="g985"><g
               clip-path="url(#clipPath979)"
               id="g983"><path
                 d="m 373.321,121.178 c -10.053,11.94 -19.838,23.553 -29.351,34.855 40.217,38.16 61.299,97.814 60.447,157.596 -0.874,58.207 -22.482,111.005 -61.814,140.423 -32.732,28.736 -75.035,35.279 -113.568,25.3 -34.744,-9.042 -67.176,-31.704 -89.86,-65.305 -4.249,5.884 -8.421,11.665 -12.523,17.342 25.941,39.427 63.354,67.191 104.08,79.589 46.01,13.969 97.685,8.734 138.76,-24.094 50.109,-34.096 78.705,-98.403 80.577,-170.7 1.872,-74.752 -25.018,-149.013 -76.748,-195.006"
                 style="fill:#af6025;fill-opacity:1;fill-rule:nonzero;stroke:none"
                 id="path981"
                 inkscape:connector-curvature="0" /></g></g></g><g
           id="g987"><g
             id="g989" /><g
             id="g999"><g
               clip-path="url(#clipPath993)"
               id="g997"><path
                 d="m 0.812,386.175 c 2.626,10.118 5.555,20.082 8.762,29.883 10.614,14.329 21.585,29.164 32.948,44.518 C 20.415,413.154 5.415,360.728 0.812,305.656 Z"
                 style="fill:#604824;fill-opacity:1;fill-rule:nonzero;stroke:none"
                 id="path995"
                 inkscape:connector-curvature="0" /></g></g></g></g></g></g></svg>