<?xml version="1.0" encoding="iso-8859-1"?>
<!-- Generator: Adobe Illustrator 19.0.0, SVG Export Plug-In . SVG Version: 6.00 Build 0)  -->
<svg version="1.1" id="Layer_1" xmlns="http://www.w3.org/2000/svg" xmlns:xlink="http://www.w3.org/1999/xlink" x="0px" y="0px"
	 viewBox="0 0 512 512" style="enable-background:new 0 0 512 512;" xml:space="preserve">
<path style="fill:#C7E9F4;" d="M387.031,512H124.969c-9.425,0-17.067-7.641-17.067-17.067V17.067C107.902,7.641,115.544,0,124.969,0
	h262.062c9.425,0,17.067,7.641,17.067,17.067v477.867C404.098,504.359,396.456,512,387.031,512z"/>
<g>
	<path style="fill:#80D0E1;" d="M387.031,0H256v512h131.031c9.425,0,17.067-7.641,17.067-17.067V17.067
		C404.098,7.641,396.456,0,387.031,0z"/>
	<path style="fill:#80D0E1;" d="M318.143,342.991H193.857c-9.425,0-17.067,7.641-17.067,17.067V512h158.42V360.058
		C335.21,350.632,327.569,342.991,318.143,342.991z"/>
</g>
<g>
	<path style="fill:#FFDA79;" d="M223.367,113.408h-26.205c-9.425,0-17.067-7.641-17.067-17.067s7.641-17.067,17.067-17.067h26.205
		c9.425,0,17.067,7.641,17.067,17.067S232.793,113.408,223.367,113.408z"/>
	<path style="fill:#FFDA79;" d="M223.367,176.197h-26.205c-9.425,0-17.067-7.641-17.067-17.067c0-9.425,7.641-17.067,17.067-17.067
		h26.205c9.425,0,17.067,7.641,17.067,17.067C240.434,168.556,232.793,176.197,223.367,176.197z"/>
	<path style="fill:#FFDA79;" d="M223.367,238.988h-26.205c-9.425,0-17.067-7.641-17.067-17.067c0-9.425,7.641-17.067,17.067-17.067
		h26.205c9.425,0,17.067,7.641,17.067,17.067C240.434,231.347,232.793,238.988,223.367,238.988z"/>
	<path style="fill:#FFDA79;" d="M223.367,301.777h-26.205c-9.425,0-17.067-7.641-17.067-17.067s7.641-17.067,17.067-17.067h26.205
		c9.425,0,17.067,7.641,17.067,17.067S232.793,301.777,223.367,301.777z"/>
</g>
<path style="fill:#51B3DA;" d="M335.21,360.058c0-9.425-7.641-17.067-17.067-17.067H256V512h79.21L335.21,360.058L335.21,360.058z"
	/>
<g>
	<path style="fill:#FFD155;" d="M314.838,113.408h-26.206c-9.425,0-17.067-7.641-17.067-17.067s7.641-17.067,17.067-17.067h26.205
		c9.425,0,17.067,7.641,17.067,17.067S324.263,113.408,314.838,113.408z"/>
	<path style="fill:#FFD155;" d="M314.838,176.197h-26.206c-9.425,0-17.067-7.641-17.067-17.067c0-9.425,7.641-17.067,17.067-17.067
		h26.205c9.425,0,17.067,7.641,17.067,17.067C331.903,168.556,324.263,176.197,314.838,176.197z"/>
	<path style="fill:#FFD155;" d="M314.838,238.988h-26.206c-9.425,0-17.067-7.641-17.067-17.067c0-9.425,7.641-17.067,17.067-17.067
		h26.205c9.425,0,17.067,7.641,17.067,17.067C331.905,231.347,324.263,238.988,314.838,238.988z"/>
	<path style="fill:#FFD155;" d="M314.838,301.777h-26.206c-9.425,0-17.067-7.641-17.067-17.067s7.641-17.067,17.067-17.067h26.205
		c9.425,0,17.067,7.641,17.067,17.067C331.905,294.136,324.263,301.777,314.838,301.777z"/>
</g>
<g>
</g>
<g>
</g>
<g>
</g>
<g>
</g>
<g>
</g>
<g>
</g>
<g>
</g>
<g>
</g>
<g>
</g>
<g>
</g>
<g>
</g>
<g>
</g>
<g>
</g>
<g>
</g>
<g>
</g>
</svg>
