<?xml version="1.0" encoding="iso-8859-1"?>
<!-- Generator: Adobe Illustrator 19.0.0, SVG Export Plug-In . SVG Version: 6.00 Build 0)  -->
<svg version="1.1" id="Layer_1" xmlns="http://www.w3.org/2000/svg" xmlns:xlink="http://www.w3.org/1999/xlink" x="0px" y="0px"
	 viewBox="0 0 512 512" style="enable-background:new 0 0 512 512;" xml:space="preserve">
<g>
	<g>
		<path d="M490.75,170.7h-21.3v-64c0-11.8-9.5-21.3-21.3-21.3h-42.7V42.7c0-11.8-9.5-21.3-21.3-21.3s-21.3,9.6-21.3,21.3v42.7h-42.8
			c-11.8,0-21.3,9.6-21.3,21.3v64h-89.2l-17.9-89.5c-2-10-10.7-17.2-20.9-17.2h-21.3V21.3c-0.1-11.7-9.6-21.3-21.4-21.3
			s-21.3,9.6-21.3,21.3V64h-21.4c-10.2,0-18.9,7.2-20.9,17.2l-17.9,89.5h-25.2c-11.8,0-21.3,9.5-21.3,21.3v298.7
			c0,11.7,9.5,21.3,21.3,21.3h469.3c11.8,0,21.3-9.6,21.3-21.3V192C512.05,180.2,502.55,170.7,490.75,170.7z M149.35,405.3
			c0,11.8-9.5,21.3-21.3,21.3s-21.3-9.6-21.3-21.3V384c0-11.8,9.5-21.3,21.3-21.3s21.3,9.6,21.3,21.3V405.3z M149.35,298.7
			c0,11.8-9.5,21.3-21.3,21.3s-21.3-9.6-21.3-21.3v-21.3c0-11.8,9.5-21.3,21.3-21.3s21.3,9.6,21.3,21.3V298.7z M90.05,170.7l12.8-64
			h50.4l12.8,64H90.05z M234.75,405.3c0,11.8-9.5,21.3-21.3,21.3c-11.8,0-21.3-9.6-21.3-21.3V384c0-11.8,9.5-21.3,21.3-21.3
			c11.8,0,21.3,9.6,21.3,21.3V405.3z M234.75,298.7c0,11.8-9.5,21.3-21.3,21.3c-11.8,0-21.3-9.6-21.3-21.3v-21.3
			c0-11.8,9.5-21.3,21.3-21.3c11.8,0,21.3,9.6,21.3,21.3V298.7z M320.05,405.3c0,11.8-9.5,21.3-21.3,21.3s-21.3-9.6-21.3-21.3V384
			c0-11.8,9.5-21.3,21.3-21.3s21.3,9.6,21.3,21.3V405.3z M320.05,298.7c0,11.8-9.5,21.3-21.3,21.3s-21.3-9.6-21.3-21.3v-21.3
			c0-11.8,9.5-21.3,21.3-21.3s21.3,9.6,21.3,21.3V298.7z M405.35,405.3c0,11.8-9.5,21.3-21.3,21.3s-21.3-9.6-21.3-21.3V384
			c0-11.8,9.5-21.3,21.3-21.3s21.3,9.6,21.3,21.3V405.3z M405.35,298.7c0,11.8-9.5,21.3-21.3,21.3s-21.3-9.6-21.3-21.3v-21.3
			c0-11.8,9.5-21.3,21.3-21.3s21.3,9.6,21.3,21.3V298.7z M426.75,170.7h-85.3V128h85.3V170.7z"/>
	</g>
</g>
<g>
</g>
<g>
</g>
<g>
</g>
<g>
</g>
<g>
</g>
<g>
</g>
<g>
</g>
<g>
</g>
<g>
</g>
<g>
</g>
<g>
</g>
<g>
</g>
<g>
</g>
<g>
</g>
<g>
</g>
</svg>
