<?xml version="1.0" encoding="iso-8859-1"?>
<!-- Generator: Adobe Illustrator 19.0.0, SVG Export Plug-In . SVG Version: 6.00 Build 0)  -->
<svg version="1.1" id="Layer_1" xmlns="http://www.w3.org/2000/svg" xmlns:xlink="http://www.w3.org/1999/xlink" x="0px" y="0px"
	 viewBox="0 0 512 512" style="enable-background:new 0 0 512 512;" xml:space="preserve">
<g transform="translate(1 1)">
	<g>
		<path style="fill:#FFE100;" d="M459.8,101.4c0,14.507-11.093,25.6-25.6,25.6c-14.507,0-25.6-11.093-25.6-25.6
			s11.093-25.6,25.6-25.6C448.707,75.8,459.8,86.893,459.8,101.4"/>
		<path style="fill:#FFE100;" d="M408.6,100.547c0-14.507,11.093-25.6,25.6-25.6c3.413,0,6.827,0,10.24,1.707
			c11.947-22.187,9.387-51.2-10.24-69.973l-85.333,86.187c16.213,16.213,40.107,20.48,60.587,13.653
			C408.6,104.813,408.6,103.107,408.6,100.547"/>
		<path style="fill:#FFE100;" d="M434.2,127c-6.827,0-12.8-2.56-17.067-6.827V178.2h34.133v-58.027
			C447,124.44,441.027,127,434.2,127"/>
	</g>
	<polygon style="fill:#FFFFFF;" points="7.533,502.467 212.333,502.467 212.333,84.333 7.533,84.333 	"/>
	<polygon style="fill:#FFE100;" points="33.133,502.467 212.333,502.467 212.333,84.333 33.133,84.333 	"/>
	<polygon style="fill:#FFA800;" points="212.333,502.467 502.467,502.467 502.467,178.2 212.333,178.2 	"/>
	<polygon style="fill:#FFE100;" points="212.333,502.467 476.867,502.467 476.867,178.2 212.333,178.2 	"/>
	<g>
		<polygon style="fill:#00DA6C;" points="263.533,280.6 297.667,280.6 297.667,212.333 263.533,212.333 		"/>
		<polygon style="fill:#00DA6C;" points="417.133,280.6 451.267,280.6 451.267,212.333 417.133,212.333 		"/>
		<polygon style="fill:#00DA6C;" points="263.533,383 297.667,383 297.667,314.733 263.533,314.733 		"/>
		<polygon style="fill:#00DA6C;" points="417.133,383 451.267,383 451.267,314.733 417.133,314.733 		"/>
		<polygon style="fill:#00DA6C;" points="75.8,502.467 144.067,502.467 144.067,400.067 75.8,400.067 		"/>
		<polygon style="fill:#00DA6C;" points="50.2,169.667 84.333,169.667 84.333,118.467 50.2,118.467 		"/>
		<polygon style="fill:#00DA6C;" points="135.533,169.667 169.667,169.667 169.667,118.467 135.533,118.467 		"/>
		<polygon style="fill:#00DA6C;" points="50.2,255 84.333,255 84.333,203.8 50.2,203.8 		"/>
		<polygon style="fill:#00DA6C;" points="135.533,255 169.667,255 169.667,203.8 135.533,203.8 		"/>
	</g>
	<polygon style="fill:#00AD55;" points="50.2,340.333 169.667,340.333 169.667,289.133 50.2,289.133 	"/>
	<polygon style="fill:#00DA6C;" points="50.2,340.333 144.067,340.333 144.067,289.133 50.2,289.133 	"/>
	<path d="M391.533,58.733c-2.56,0-4.267-0.853-5.973-2.56L351.427,22.04c-3.413-3.413-3.413-8.533,0-11.947
		c3.413-3.413,8.533-3.413,11.947,0l34.133,34.133c3.413,3.413,3.413,8.533,0,11.947C395.8,57.88,394.093,58.733,391.533,58.733z"/>
	<path d="M434.2,135.533c-18.773,0-34.133-15.36-34.133-34.133s15.36-34.133,34.133-34.133c18.773,0,34.133,15.36,34.133,34.133
		S452.973,135.533,434.2,135.533z M434.2,84.333c-9.387,0-17.067,7.68-17.067,17.067s7.68,17.067,17.067,17.067
		s17.067-7.68,17.067-17.067S443.587,84.333,434.2,84.333z"/>
	<path d="M389.827,118.467c-17.92,0-34.987-6.827-46.933-19.627c-3.413-3.413-3.413-8.533,0-11.947L428.227,1.56
		C429.933-0.147,431.64-1,434.2-1l0,0c2.56,0,4.267,0.853,5.973,2.56c20.48,20.48,25.6,52.907,11.093,80.213
		c-1.707,4.267-13.653,2.56-17.067,2.56c-9.387,0-17.067,7.68-17.067,17.067c0,0.853-0.853,11.947-5.12,13.653
		C404.333,116.76,397.507,118.467,389.827,118.467z M361.667,92.013c11.093,7.68,24.747,10.24,38.4,7.68
		c0.853-17.92,15.36-32.427,34.133-32.427c1.707,0,3.413,0,5.12,0c5.973-16.213,4.267-34.133-5.12-47.787L361.667,92.013z"/>
	<path d="M212.333,511H7.533C2.413,511-1,507.587-1,502.467V84.333c0-5.12,3.413-8.533,8.533-8.533h204.8
		c5.12,0,8.533,3.413,8.533,8.533v418.133C220.867,507.587,217.453,511,212.333,511z M16.067,493.933H203.8V92.867H16.067V493.933z"
		/>
	<path d="M502.467,511H212.333c-5.12,0-8.533-3.413-8.533-8.533V178.2c0-5.12,3.413-8.533,8.533-8.533h290.133
		c5.12,0,8.533,3.413,8.533,8.533v324.267C511,507.587,507.587,511,502.467,511z M220.867,493.933h273.067v-307.2H220.867V493.933z"
		/>
	<path d="M144.067,511H75.8c-5.12,0-8.533-3.413-8.533-8.533v-102.4c0-5.12,3.413-8.533,8.533-8.533h68.267
		c5.12,0,8.533,3.413,8.533,8.533v102.4C152.6,507.587,149.187,511,144.067,511z M84.333,493.933h51.2V408.6h-51.2V493.933z"/>
	<path d="M84.333,178.2H50.2c-5.12,0-8.533-3.413-8.533-8.533v-51.2c0-5.12,3.413-8.533,8.533-8.533h34.133
		c5.12,0,8.533,3.413,8.533,8.533v51.2C92.867,174.787,89.453,178.2,84.333,178.2z M58.733,161.133H75.8V127H58.733V161.133z"/>
	<path d="M169.667,178.2h-34.133c-5.12,0-8.533-3.413-8.533-8.533v-51.2c0-5.12,3.413-8.533,8.533-8.533h34.133
		c5.12,0,8.533,3.413,8.533,8.533v51.2C178.2,174.787,174.787,178.2,169.667,178.2z M144.067,161.133h17.067V127h-17.067V161.133z"
		/>
	<path d="M84.333,263.533H50.2c-5.12,0-8.533-3.413-8.533-8.533v-51.2c0-5.12,3.413-8.533,8.533-8.533h34.133
		c5.12,0,8.533,3.413,8.533,8.533V255C92.867,260.12,89.453,263.533,84.333,263.533z M58.733,246.467H75.8v-34.133H58.733V246.467z"
		/>
	<path d="M169.667,263.533h-34.133c-5.12,0-8.533-3.413-8.533-8.533v-51.2c0-5.12,3.413-8.533,8.533-8.533h34.133
		c5.12,0,8.533,3.413,8.533,8.533V255C178.2,260.12,174.787,263.533,169.667,263.533z M144.067,246.467h17.067v-34.133h-17.067
		V246.467z"/>
	<path d="M297.667,289.133h-34.133c-5.12,0-8.533-3.413-8.533-8.533v-68.267c0-5.12,3.413-8.533,8.533-8.533h34.133
		c5.12,0,8.533,3.413,8.533,8.533V280.6C306.2,285.72,302.787,289.133,297.667,289.133z M272.067,272.067h17.067v-51.2h-17.067
		V272.067z"/>
	<path d="M451.267,289.133h-34.133c-5.12,0-8.533-3.413-8.533-8.533v-68.267c0-5.12,3.413-8.533,8.533-8.533h34.133
		c5.12,0,8.533,3.413,8.533,8.533V280.6C459.8,285.72,456.387,289.133,451.267,289.133z M425.667,272.067h17.067v-51.2h-17.067
		V272.067z"/>
	<path d="M314.733,289.133h-68.267c-5.12,0-8.533-3.413-8.533-8.533c0-5.12,3.413-8.533,8.533-8.533h68.267
		c5.12,0,8.533,3.413,8.533,8.533S319.853,289.133,314.733,289.133z"/>
	<path d="M468.333,289.133h-68.267c-5.12,0-8.533-3.413-8.533-8.533c0-5.12,3.413-8.533,8.533-8.533h68.267
		c5.12,0,8.533,3.413,8.533,8.533S473.453,289.133,468.333,289.133z"/>
	<path d="M297.667,391.533h-34.133c-5.12,0-8.533-3.413-8.533-8.533v-68.267c0-5.12,3.413-8.533,8.533-8.533h34.133
		c5.12,0,8.533,3.413,8.533,8.533V383C306.2,388.12,302.787,391.533,297.667,391.533z M272.067,374.467h17.067v-51.2h-17.067
		V374.467z"/>
	<path d="M451.267,391.533h-34.133c-5.12,0-8.533-3.413-8.533-8.533v-68.267c0-5.12,3.413-8.533,8.533-8.533h34.133
		c5.12,0,8.533,3.413,8.533,8.533V383C459.8,388.12,456.387,391.533,451.267,391.533z M425.667,374.467h17.067v-51.2h-17.067
		V374.467z"/>
	<path d="M314.733,391.533h-68.267c-5.12,0-8.533-3.413-8.533-8.533c0-5.12,3.413-8.533,8.533-8.533h68.267
		c5.12,0,8.533,3.413,8.533,8.533C323.267,388.12,319.853,391.533,314.733,391.533z"/>
	<path d="M468.333,391.533h-68.267c-5.12,0-8.533-3.413-8.533-8.533c0-5.12,3.413-8.533,8.533-8.533h68.267
		c5.12,0,8.533,3.413,8.533,8.533C476.867,388.12,473.453,391.533,468.333,391.533z"/>
	<path d="M169.667,348.867H50.2c-5.12,0-8.533-3.413-8.533-8.533v-51.2c0-5.12,3.413-8.533,8.533-8.533h119.467
		c5.12,0,8.533,3.413,8.533,8.533v51.2C178.2,345.453,174.787,348.867,169.667,348.867z M58.733,331.8h102.4v-34.133h-102.4V331.8z"
		/>
	<path d="M451.267,186.733h-34.133c-5.12,0-8.533-3.413-8.533-8.533v-58.027c0-3.413,1.707-6.827,5.12-7.68
		c3.413-1.707,6.827-0.853,9.387,1.707c2.56,1.707,5.973,4.267,11.093,4.267c5.12,0,9.387-2.56,11.093-4.267
		c2.56-2.56,5.973-2.56,9.387-1.707c3.413,1.707,5.12,4.267,5.12,7.68V178.2C459.8,183.32,456.387,186.733,451.267,186.733z
		 M425.667,169.667h17.067V134.68c-5.973,1.707-11.093,1.707-17.067,0V169.667z"/>
</g>
<g>
</g>
<g>
</g>
<g>
</g>
<g>
</g>
<g>
</g>
<g>
</g>
<g>
</g>
<g>
</g>
<g>
</g>
<g>
</g>
<g>
</g>
<g>
</g>
<g>
</g>
<g>
</g>
<g>
</g>
</svg>
